<svg version="1.1" xmlns="http://www.w3.org/2000/svg" viewBox="0 0 72 72" width="144" height="144">
  <!-- svg-source:excalidraw -->
  
  <defs>
    <style class="style-fonts">
      @font-face {
        font-family: "Virgil";
        src: url("https://excalidraw.com/Virgil.woff2");
      }
      @font-face {
        font-family: "Cascadia";
        src: url("https://excalidraw.com/Cascadia.woff2");
      }
    </style>
  </defs>
  <g stroke-linecap="round"><g transform="translate(45.31503960288342 43.38207392055574) rotate(0 8.569830704493825 2.6584708618684374)" fill-rule="evenodd"><path d="M0 0 C0 0, 0 0, 0 0 M0 0 C0 0, 0 0, 0 0 M0.39 5.64 C1.99 3.81, 3.58 1.98, 4.99 0.36 M0.39 5.64 C1.62 4.23, 2.85 2.81, 4.99 0.36 M7.35 3.74 C8.3 2.65, 9.25 1.56, 9.97 0.72 M7.35 3.74 C7.92 3.08, 8.5 2.42, 9.97 0.72 M14.3 1.84 C14.5 1.61, 14.69 1.39, 14.96 1.08 M14.3 1.84 C14.54 1.56, 14.78 1.28, 14.96 1.08" stroke="#616161" stroke-width="0.5" fill="none"></path><path d="M0 0 C5.36 0.42, 10.72 0.84, 17.14 1.34 M0 0 C6.63 0.52, 13.25 1.04, 17.14 1.34 M17.14 1.34 C11.09 2.79, 5.04 4.24, 0.52 5.32 M17.14 1.34 C12.43 2.47, 7.73 3.59, 0.52 5.32 M0.52 5.32 C0.34 3.44, 0.15 1.56, 0 0 M0.52 5.32 C0.42 4.24, 0.31 3.16, 0 0 M0 0 C0 0, 0 0, 0 0 M0 0 C0 0, 0 0, 0 0" stroke="#000000" stroke-width="1" fill="none"></path></g></g><mask></mask><g stroke-linecap="round"><g transform="translate(10 40.43324768221231) rotate(0 18.64708914532298 10.252695600327826)" fill-rule="evenodd"><path d="M0 0 L1.92 17.56 L21.4 20.51 L37.29 20.38 L35.37 4.61 L20.89 3.72 L0 0" stroke="none" stroke-width="0" fill="#424242" fill-rule="evenodd"></path><path d="M0 0 C0.43 3.92, 0.86 7.84, 1.92 17.56 M0 0 C0.71 6.5, 1.42 12.99, 1.92 17.56 M1.92 17.56 C9.59 18.72, 17.25 19.88, 21.4 20.51 M1.92 17.56 C7.91 18.46, 13.89 19.37, 21.4 20.51 M21.4 20.51 C26.12 20.47, 30.84 20.43, 37.29 20.38 M21.4 20.51 C27.27 20.46, 33.14 20.41, 37.29 20.38 M37.29 20.38 C36.65 15.07, 36 9.75, 35.37 4.61 M37.29 20.38 C36.58 14.53, 35.87 8.67, 35.37 4.61 M35.37 4.61 C30.46 4.31, 25.56 4.01, 20.89 3.72 M35.37 4.61 C31.91 4.4, 28.46 4.19, 20.89 3.72 M20.89 3.72 C12.82 2.28, 4.74 0.84, 0 0 M20.89 3.72 C13.18 2.34, 5.47 0.97, 0 0 M0 0 C0 0, 0 0, 0 0 M0 0 C0 0, 0 0, 0 0" stroke="#000000" stroke-width="1" fill="none"></path></g></g><mask></mask><g stroke-linecap="round"><g transform="translate(45.96712394753149 48.64995696600681) rotate(0 8.35304887180314 4.357395141252709)" fill-rule="evenodd"><path d="M0 0 L16.45 -3.46 L16.71 9.87 L1.2 12.18 L0 0" stroke="none" stroke-width="0" fill="#212121" fill-rule="evenodd"></path><path d="M0 0 C5.12 -1.08, 10.25 -2.16, 16.45 -3.46 M0 0 C3.95 -0.83, 7.9 -1.66, 16.45 -3.46 M16.45 -3.46 C16.51 -0.31, 16.57 2.84, 16.71 9.87 M16.45 -3.46 C16.51 -0.17, 16.58 3.12, 16.71 9.87 M16.71 9.87 C11 10.72, 5.3 11.56, 1.2 12.18 M16.71 9.87 C13.34 10.37, 9.98 10.87, 1.2 12.18 M1.2 12.18 C0.77 7.82, 0.34 3.47, 0 0 M1.2 12.18 C0.74 7.51, 0.28 2.85, 0 0 M0 0 C0 0, 0 0, 0 0 M0 0 C0 0, 0 0, 0 0" stroke="#000000" stroke-width="1" fill="none"></path></g></g><mask></mask><g stroke-linecap="round"><g transform="translate(11.531720795937872 40.45367927233514) rotate(0 16.359499731591313 -2.1017404121848813)" fill-rule="evenodd"><path d="M0 0 L-1.48 -9.2 L19.99 -5.91 L34.2 -5.34 L34.08 5 L18.52 4.09 L0 0" stroke="none" stroke-width="0" fill="#616161" fill-rule="evenodd"></path><path d="M0 0 C-0.45 -2.78, -0.89 -5.56, -1.48 -9.2 M0 0 C-0.37 -2.3, -0.74 -4.6, -1.48 -9.2 M-1.48 -9.2 C5.91 -8.07, 13.29 -6.94, 19.99 -5.91 M-1.48 -9.2 C6.69 -7.95, 14.86 -6.7, 19.99 -5.91 M19.99 -5.91 C23.8 -5.76, 27.61 -5.6, 34.2 -5.34 M19.99 -5.91 C23.17 -5.78, 26.35 -5.65, 34.2 -5.34 M34.2 -5.34 C34.17 -2.53, 34.13 0.28, 34.08 5 M34.2 -5.34 C34.16 -1.99, 34.12 1.36, 34.08 5 M34.08 5 C30.01 4.76, 25.94 4.52, 18.52 4.09 M34.08 5 C29.67 4.74, 25.25 4.48, 18.52 4.09 M18.52 4.09 C14.52 3.21, 10.53 2.33, 0 0 M18.52 4.09 C14.78 3.26, 11.03 2.44, 0 0 M0 0 C0 0, 0 0, 0 0 M0 0 C0 0, 0 0, 0 0" stroke="#000000" stroke-width="1" fill="none"></path></g></g><mask></mask><g stroke-linecap="round"><g transform="translate(15.432772807718266 58.104416984271325) rotate(0 4.671821485379837 -4.468496998941987)" fill-rule="evenodd"><path d="M0 0 L-0.22 -7.18 L1.84 -10.68 L5.07 -10.03 L8.36 -6.52 L9.49 -2.1 L9.07 1.67 L0 0" stroke="none" stroke-width="0" fill="#000" fill-rule="evenodd"></path><path d="M0 0 C-0.04 -1.2, -0.52 -5.4, -0.22 -7.18 C0.09 -8.96, 0.96 -10.21, 1.84 -10.68 C2.72 -11.16, 3.98 -10.73, 5.07 -10.03 C6.16 -9.34, 7.69 -8.47, 8.36 -6.52 C9.03 -4.57, 10.47 0.58, 9.07 1.67 C7.68 2.76, 1.51 0.28, 0 0 M0 0 C-0.04 -1.2, -0.52 -5.4, -0.22 -7.18 C0.09 -8.96, 0.96 -10.21, 1.84 -10.68 C2.72 -11.16, 3.98 -10.73, 5.07 -10.03 C6.16 -9.34, 7.69 -8.47, 8.36 -6.52 C9.03 -4.57, 10.47 0.58, 9.07 1.67 C7.68 2.76, 1.51 0.28, 0 0" stroke="#000000" stroke-width="1" fill="none"></path></g></g><mask></mask><g stroke-linecap="round"><g transform="translate(32.79196463886592 60.81113256832549) rotate(0 4.260365312880708 -6.071608107804337)" fill-rule="evenodd"><path d="M0 0 L-0.8 -8.76 L1.51 -12.26 L5.65 -11.94 L8.28 -8.68 L9.23 -4.31 L8.76 -0.32 L4.41 0.36 L0 0" stroke="none" stroke-width="0" fill="#000" fill-rule="evenodd"></path><path d="M0 0 C-0.13 -1.46, -1.05 -6.71, -0.8 -8.76 C-0.54 -10.8, 0.44 -11.73, 1.51 -12.26 C2.59 -12.79, 4.52 -12.54, 5.65 -11.94 C6.78 -11.34, 7.76 -10.61, 8.28 -8.68 C8.8 -6.74, 10.13 -1.76, 8.76 -0.32 C7.38 1.13, 1.46 -0.05, 0 0 M0 0 C-0.13 -1.46, -1.05 -6.71, -0.8 -8.76 C-0.54 -10.8, 0.44 -11.73, 1.51 -12.26 C2.59 -12.79, 4.52 -12.54, 5.65 -11.94 C6.78 -11.34, 7.76 -10.61, 8.28 -8.68 C8.8 -6.74, 10.13 -1.76, 8.76 -0.32 C7.38 1.13, 1.46 -0.05, 0 0" stroke="#000000" stroke-width="1" fill="none"></path></g></g><mask></mask><g stroke-linecap="round"><g transform="translate(51.268275608847716 60.32992391717829) rotate(0 3.3883678103527473 -4.558610416593467)" fill-rule="evenodd"><path d="M0 0 L-0.7 -7.66 L0.3 -8.95 L1.88 -9.12 L5.7 -7.8 L7.38 -3.16 L7.12 -1.55 L0 0" stroke="none" stroke-width="0" fill="#000" fill-rule="evenodd"></path><path d="M0 0 C-0.12 -1.28, -1.02 -6.14, -0.7 -7.66 C-0.39 -9.18, 0.81 -9.09, 1.88 -9.12 C2.94 -9.14, 4.9 -8.49, 5.7 -7.8 C6.49 -7.1, 6.4 -5.98, 6.64 -4.94 C6.88 -3.9, 8.22 -2.37, 7.12 -1.55 C6.01 -0.72, 1.19 -0.26, 0 0 M0 0 C-0.12 -1.28, -1.02 -6.14, -0.7 -7.66 C-0.39 -9.18, 0.81 -9.09, 1.88 -9.12 C2.94 -9.14, 4.9 -8.49, 5.7 -7.8 C6.49 -7.1, 6.4 -5.98, 6.64 -4.94 C6.88 -3.9, 8.22 -2.37, 7.12 -1.55 C6.01 -0.72, 1.19 -0.26, 0 0" stroke="#000000" stroke-width="1" fill="none"></path></g></g><mask></mask><g stroke-linecap="round"><g transform="translate(17.83501026037493 48.633302608390636) rotate(0 17.634101817979968 -19.51864531390214)" fill-rule="evenodd"><path d="M2.33 -33.75 C2.33 -33.75, 2.33 -33.75, 2.33 -33.75 M2.33 -33.75 C2.33 -33.75, 2.33 -33.75, 2.33 -33.75 M4.24 -29.56 C4.69 -30.77, 5.33 -31.48, 5.81 -31.82 M4.08 -29.74 C4.65 -30.25, 5 -30.87, 5.89 -31.87 M6.76 -26.46 C7.69 -27.85, 9.2 -28.56, 9.43 -29.75 M6.26 -26.14 C7.73 -27.72, 8.92 -29.05, 9.6 -30.11 M8.45 -22.72 C9.64 -24.48, 11.86 -26.47, 14.02 -28.02 M8.44 -22.84 C10.27 -24.7, 11.47 -25.97, 13.54 -28.12 M0.36 -7.93 C1.98 -10.19, 4.17 -12.28, 11.15 -20.18 M0.04 -7.15 C2.75 -8.99, 5.83 -12.3, 11.65 -20.21 M17.57 -27.32 C18.35 -29.63, 22 -31.95, 25.87 -36.14 M18.23 -26.4 C21.27 -30.71, 24.64 -34.26, 25.99 -36.49 M6.46 -9.27 C8.32 -10.42, 10.17 -11.05, 12.38 -14.89 M6.83 -8.44 C8.92 -11.36, 11.09 -13.88, 13.15 -15.57 M20.86 -25.34 C22.37 -27.06, 23.9 -27.88, 25.69 -30.24 M21.25 -25.34 C23.05 -26.74, 24.47 -28.53, 25.48 -29.52 M13.92 -10.36 C14.21 -11.07, 14.73 -11.41, 15.23 -11.91 M13.87 -10.39 C14.29 -10.83, 14.44 -11.24, 15.22 -11.87 M24.41 -22.51 C24.58 -22.72, 24.73 -23.01, 25.06 -23.19 M24.43 -22.51 C24.6 -22.76, 24.86 -23.05, 25.08 -23.26 M17.34 -8.86 C18.52 -9.61, 19.17 -10.93, 20.75 -12.73 M17.81 -8.59 C18.47 -9.81, 19.86 -11.21, 21.06 -12.51 M23.34 -14.62 C24.75 -16.08, 25.21 -17.39, 29.09 -20.74 M23.37 -15.21 C25.21 -17.03, 26.41 -18.27, 28.5 -21.05 M19.5 -4.43 C20.09 -5.5, 21.72 -6.3, 22.44 -8.55 M19.11 -4.68 C20.11 -5.18, 20.98 -6.06, 22.48 -8.18 M27.04 -14.36 C30.28 -15.79, 31.41 -19.52, 32.21 -19.59 M27.36 -13.58 C28.83 -15.06, 30.12 -17.81, 33.33 -20.69 M33.8 -15.57 C34.92 -16.84, 36.01 -17.29, 37.12 -18.49 M34.23 -15.33 C34.97 -16.56, 35.75 -17.48, 36.61 -18.37" stroke="#fff59d" stroke-width="0.5" fill="none"></path><path d="M-2.25 -10.39 C9.16 -21.27, 20 -28.79, 24.28 -38.13 M-0.21 -9.64 C7.85 -18.82, 18.48 -29.08, 26.22 -36.33 M26.31 -38.63 C25.53 -22.85, 21.87 -9.12, 20.71 -0.4 M26.21 -37.53 C24.67 -25.35, 22.9 -11.17, 20.67 -0.94 M19.7 -2.39 C13.11 -13.18, 8.19 -21.16, 4.07 -33.28 M21.9 -1.48 C16.26 -8.83, 13.75 -16.33, 2.91 -33.07 M1.31 -31.82 C9.3 -28.26, 15.73 -28.07, 37.06 -18.72 M2.68 -34.13 C16.25 -26.77, 29.15 -22.14, 36.64 -18.37 M37.52 -17.56 C26.88 -14.09, 12.88 -12.78, -0.48 -9.8 M36.93 -17.28 C27.24 -14.84, 17.59 -13.59, -1.65 -8.49 M-1.14 -8.09 C-0.88 -8.53, -0.44 -9.18, -0.36 -9.7 M-1.05 -8.12 C-0.86 -8.64, -0.61 -9.26, -0.36 -9.82" stroke=" #ffff00" stroke-width="1" fill="none"></path></g></g><mask></mask></svg>